#!OML:ASF F:\twosubjects\two\Thursday\Session 1\Rory.ASF
:FULLY-SPECIFIED
:DEGREES
261
root 7.30716 18.4748 -8.22492 6.62778 54.6781 -0.0725591
lowerback 2.68689 -1.48673 -5.78022
upperback 4.91114 -1.74204 -4.57581
thorax 3.61706 -0.924575 -1.50777
lowerneck 4.41613 -12.1583 -14.4233
upperneck 34.2247 -14.8238 -1.73114
head 11.655 -8.46003 0.439944
rclavicle -1.04163e-013 -7.95139e-015
rhumerus -11.2048 -4.72599 -22.401
rradius 84.9162
rwrist -32.7068
rhand 10.9359 5.06238
rfingers 7.12502
rthumb 36.0135 -21.2508
lclavicle -1.04163e-013 -7.95139e-015
lhumerus -32.6741 10.0844 68.2127
lradius 36.9172
lwrist -13.7447
lhand -10.9608 30.6429
lfingers 7.12502
lthumb 15.0583 60.0752
rfemur -15.1225 0.70803 10.6842
rtibia 35.632
rfoot -13.8098 -28.7434
rtoes 10.9773
lfemur -10.964 3.05652 -22.0398
ltibia 17.2694
lfoot -13.3215 9.9866
ltoes 14.4553
262
root 7.33047 18.4772 -8.2431 6.06841 54.7238 -0.540043
lowerback 2.84723 -1.45439 -5.43894
upperback 4.936 -1.71321 -4.53799
thorax 3.53966 -0.898961 -1.65285
lowerneck 4.47744 -12.1635 -14.5603
upperneck 34.2062 -14.8393 -1.69675
head 11.6563 -8.47956 0.473323
rclavicle 6.67916e-014 1.27222e-014
rhumerus -11.0569 -2.69821 -21.995
rradius 84.7891
rwrist -34.7914
rhand 8.07044 4.86922
rfingers 7.12502
rthumb 33.294 -22.0685
lclavicle 6.67916e-014 1.27222e-014
lhumerus -32.3369 10.2697 68.1497
lradius 37.3365
lwrist -14.3944
lhand -11.5057 30.2834
lfingers 7.12502
lthumb 14.5333 59.7544
rfemur -15.4613 0.740141 10.9105
rtibia 36.4563
rfoot -12.493 -29.0642
rtoes 9.42649
lfemur -10.8381 3.10006 -21.7919
ltibia 17.4941
lfoot -13.4833 9.65575
ltoes 16.2991
263
root 7.34997 18.4739 -8.25989 5.36309 54.7577 -1.39191
lowerback 2.81769 -1.42315 -4.79773
upperback 4.94352 -1.66914 -4.55255
thorax 3.53917 -0.855875 -2.02429
lowerneck 4.42706 -12.0964 -14.7255
upperneck 34.3321 -14.8195 -1.37459
head 11.7615 -8.46197 0.604797
rclavicle 3.18055e-015 2.8625e-014
rhumerus -10.9132 -1.15739 -21.7686
rradius 84.7137
rwrist -35.921
rhand 3.62033 4.09096
rfingers 7.12502
rthumb 29.0532 -23.6636
lclavicle 3.18055e-015 2.8625e-014
lhumerus -31.6455 10.0883 67.9897
lradius 37.5719
lwrist -14.6927
lhand -11.2335 29.8494
lfingers 7.12502
lthumb 14.7956 59.3012
rfemur -16.0231 0.585469 11.3687
rtibia 37.2746
rfoot -13.3649 -28.9116
rtoes 15.1711
lfemur -10.9494 3.64572 -21.3758
ltibia 17.7037
lfoot -13.2484 9.27594
ltoes 15.3206
264
root 7.3664 18.459 -8.2807 5.16847 54.8351 -1.63128
lowerback 2.72566 -1.39298 -4.55489
upperback 5.03656 -1.61133 -4.61422
thorax 3.67851 -0.81832 -2.2284
lowerneck 4.29074 -12.0872 -14.7898
upperneck 34.3653 -14.8641 -1.10894
head 11.8328 -8.46423 0.692908
rclavicle 1.59028e-015 2.70347e-014
rhumerus -10.7774 -0.421791 -21.533
rradius 84.5365
rwrist -35.1352
rhand 0.932886 3.52989
rfingers 7.12502
rthumb 26.4836 -24.6394
lclavicle 1.59028e-015 2.70347e-014
lhumerus -30.9568 9.62013 68.0488
lradius 37.9933
lwrist -14.2244
lhand -11.2843 29.882
lfingers 7.12502
lthumb 14.7466 59.3374
rfemur -16.5836 0.619482 11.4397
rtibia 38.105
rfoot -12.8107 -29.0581
rtoes 17.1273
lfemur -11.0339 3.93918 -21.3558
ltibia 17.8288
lfoot -13.1706 9.01045
ltoes 14.1903
265
root 7.38687 18.454 -8.30162 5.23439 54.9487 -1.4088
lowerback 2.69232 -1.38127 -4.6134
upperback 5.20819 -1.57514 -4.66086
thorax 3.87875 -0.801925 -2.25022
lowerneck 4.31049 -12.1063 -14.8972
upperneck 34.0226 -14.9657 -0.890887
head 11.7241 -8.49759 0.787966
rclavicle 5.48646e-014 -1.27222e-014
rhumerus -10.4519 -0.289618 -21.1609
rradius 84.0201
rwrist -32.7306
rhand 0.716895 3.7843
rfingers 7.12502
rthumb 26.2769 -24.416
lclavicle 5.48646e-014 -1.27222e-014
lhumerus -30.4925 10.0014 68.1235
lradius 38.4355
lwrist -14.7929
lhand -11.476 29.6434
lfingers 7.12502
lthumb 14.5619 59.1122
rfemur -17.0591 0.773684 11.2349
rtibia 38.9605
rfoot -11.4468 -29.5589
rtoes 16.1079
lfemur -10.9295 3.91601 -21.6099
ltibia 17.912
lfoot -12.9888 9.16682
ltoes 13.4681
266
root 7.40447 18.4651 -8.31498 4.86813 55.0855 -1.70028
lowerback 2.8296 -1.39354 -4.49749
upperback 5.26645 -1.60067 -4.58275
thorax 3.8599 -0.812308 -2.23126
lowerneck 3.76834 -12.1434 -14.8898
upperneck 34.4445 -14.7979 -1.3095
head 11.9541 -8.45821 0.600595
rclavicle -6.99722e-014 3.18055e-015
rhumerus -10.1084 -0.344946 -20.7958
rradius 83.3875
rwrist -30.1557
rhand 2.15515 4.73692
rfingers 7.12502
rthumb 27.653 -23.2506
lclavicle -6.99722e-014 3.18055e-015
lhumerus -30.2411 10.1609 68.1914
lradius 38.913
lwrist -15.3683
lhand -11.5034 29.2968
lfingers 7.12502
lthumb 14.5355 58.7676
rfemur -17.5359 0.858249 11.381
rtibia 39.8319
rfoot -10.6787 -29.9002
rtoes 16.7354
lfemur -10.7389 3.93336 -21.4727
ltibia 17.8458
lfoot -12.7731 9.20419
ltoes 13.489
